<svg width="720" height="640" viewBox="0 0 720 640" fill="black" xmlns="http://www.w3.org/2000/svg">
  <g xmlns="http://www.w3.org/2000/svg" fill="none" fill-rule="evenodd">
    <rect width="720" height="640"/>
  </g>
<g transform="translate(120, 80)"><path xmlns="http://www.w3.org/2000/svg" d="M393.13 244.9l.01.1-.01-.1zm-276-109.4l.01.1c-.01-.06-.01-.08-.01-.1z"/><path xmlns="http://www.w3.org/2000/svg" d="M258.65 47.78s-1.83 1.25-3.23 1.32c-1.4.07-1.47-.07-1.47-1.03s-.15-1.54-.37-2.27-1.17-1.83-1.17-1.83-.8 1.54-2.64 1.98-3.6-.3-6.53-1.54c-2.94-1.25-5.72-1.47-8.15-.8-2.42.66-3.3 1.4-4.26 2.13s-2.35 2.95-2.35 2.95-2.83-.33-5.87 1.08c-3.34 1.56-4.77 5.87-5.14 9.03s.6 6.68 1.17 8.5 1.65 4.13 1.65 4.13.18-.22.5-.5l.12.6c-1 1.04-1.6 2.48-1.6 4.1 0 3.15 2.37 5.7 5.3 5.7.37 0 .72-.05 1.07-.13l-6.87 22.43-2.2 5.7s3.2 4.1 10.8 5.7c5.2 1.1 8.7 1.2 11 1 1.9-.2 4.2-.6 3-4.1-1.7-5.2-1.1-8.5-1.1-8.5l2.4-13.1c1.63.3 3.14.35 4.3-.01 3.2-1 5.9-4.4 6.9-10.1.5-3.3.8-9.2.8-13.4 0-1.1-.1-3.4-.3-5.4-.07-.52-.16-1.02-.26-1.5a11.2 11.2 0 0 0 3.3-2.34c4.94-5.07 1.2-9.77 1.2-9.77zM228 79.98c.01.03.02.06.02.1l-.08-.05c.02-.01.04-.02.06-.04z" fill="#fff"/><path xmlns="http://www.w3.org/2000/svg" d="M251.84 60.06l.33-.04c-.01-.03-.1-.01-.33.04zm-29.67 9.24l.08-.04c-.06.02-.07.04-.08.04zm38.87-18.16v.02l.03.1-.03-.12z"/><circle xmlns="http://www.w3.org/2000/svg" cx="242.07" cy="71.92" r="1.4"/><path xmlns="http://www.w3.org/2000/svg" d="M224.93 72.6c-1.6 0-2.9 1.35-2.9 3s1.3 3 2.9 3 2.9-1.35 2.9-3-1.3-3-2.9-3zm0 5c-1.05 0-1.9-.9-1.9-2s.85-2 1.9-2 1.9.9 1.9 2-.85 2-1.9 2zm18.47-13.47c-3.6-.3-5.2 2.1-5.3 2.2-.2.3-.18.75.15 1 .5.38.92.16 1.15-.1.12-.13 1.2-1.8 3.9-1.6.4 0 .8-.3.8-.7s-.3-.8-.7-.8zm7.14.57c.15-.02 1.24-.35 2.1.14.14.08.3.16.4.16.2 0 .5-.1.6-.3a.78.78 0 0 0-.2-1c-1.4-1-3.13-.44-3.28-.4a.73.73 0 0 0-.52.9c.1.4.5.54.9.5z"/><circle xmlns="http://www.w3.org/2000/svg" cx="252.07" cy="71.12" r="1.4"/><path xmlns="http://www.w3.org/2000/svg" d="M244.3 82.84c-3.6.17-4.65-2.7-4.7-2.85-.18-.4-.56-.54-.95-.4s-.55.56-.4.95c.55 1.45 2.42 3.98 6.22 3.8.4-.04.67-.37.62-.87a.75.75 0 0 0-.77-.62zm16.75-31.68l-.57-2.03-.22-.55-.18-.37-.23-.4c-.32-.52-.68-.98-1-1.3l-.47.35-.78.37-.46.3-.27.16a1.93 1.93 0 0 1-.56.21l.01-.04c-.48.3-1.07.28-1.2.32l.01-.03c-.05 0-.1.01-.15 0l.05-.03c-.06.02-.1-.02-.12-.07-.01-.03-.01-.04-.02-.1l-.02-.38c-.04-.63-.17-1.27-.3-1.8l-.1.12c-.04-.18-.07-.36-.17-.6l-.13-.3c-.04-.1-.12-.22-.18-.33a8.35 8.35 0 0 0-.82-1.12l-.52-.03c-.14-.01-.26-.05-.34.02-.18.1-.43.18-.83.28-.22.33-.58.66-.68.7-.16.12-.35.22-.56.3v-.04c-.8.6-1.73.55-2.55.32l-2.95-.96c.3.08-.1-.1-.06-.13-1.06-.42-2.35-.9-2.44-.65-.85-.28-.68-.28-.76-.42-.02.1-.8-.06-1.48-.17l.33.02a11.3 11.3 0 0 0-2-.2 4.79 4.79 0 0 1 .38.23c-1.05-.1-.26-.3-1.3-.23l.02.17c-1.46.03-2.4.01-3.8.34-1.22.38-2.46 1.15-3.42 1.98-.6.52-.96 1.03-1.35 1.56l-.55.8-.13.2-.04.08c-.03.04-.05.1-.08.14h-.2l-.66.02-1.3.15a14.34 14.34 0 0 0-2.52.65c-.8.3-1.6.65-2.33 1.18-.7.52-1.3 1.13-1.83 1.77l-.25.13c-.26-.02-.6 1.5-.8 1.6l-.2.65c-.1.15-.27.5-.2.18-.23.56-.2.6-.3 1l-.3.58c-.74 2.24-.7 4.37-.43 6.8.05 1.16.33 2.68.8 4.24.23.78.53 1.6.85 2.34l.5 1.13.8 1.72c.08 0 .13.01.2.02a6.42 6.42 0 0 0-1.07 3.57c0 3.42 2.6 6.2 5.8 6.2.12 0 .24-.02.36-.03l-6.63 21.65-2.3 5.96.17.22c.14.17 3.4 4.26 11.1 5.88 3.44.73 6.48 1.1 9.08 1.1a22.56 22.56 0 0 0 2.07-.09c1.28-.13 2.7-.37 3.4-1.45.5-.8.52-1.88.03-3.3-1.63-5-1.1-8.22-1.08-8.25l2.32-12.6c.68.1 1.35.18 1.96.18.76 0 1.46-.1 2.08-.28 3.63-1.14 6.27-4.96 7.25-10.5.1-.64.18-1.36.26-2.14 1.83-.73 3.13-3.16 3.13-6.12 0-2.67-1.06-4.9-2.6-5.86-.03-1.26-.13-3.14-.3-4.8-.02-.17-.06-.33-.1-.5 1.08-.5 2.23-1.22 3.5-2.52.85-.9 1.65-1.98 2.17-3.23a7.87 7.87 0 0 0 .55-3.9zm-18.22 15.72c-2.38 0-4.45 2.33-4.9 5.35l-3.22-.56c.1-.15.2-.33.17-.34.86-1.33 1.18-2.73 1.42-4.14 0 0 .06-.32.1-.86s.07-1.3-.03-2.17c-.2-1.83-1.2-3.7-2.13-4.98-.25-.34-.34-.46-.42-.7-.03-.1-.05-.2-.07-.27a1.12 1.12 0 0 0 .22-.03l.02.08c.02.02.05.03.07.04l.13.05a20.69 20.69 0 0 1 .76.35l1.04.52c3.87 1.95 6.4 2.96 11.87 2.92 2.42-.01 3.98-.3 5.5-.76l.5-.18c.01.08.03.15.04.22a73.09 73.09 0 0 1 .28 4.29c-.22-.05-.44-.08-.67-.08-2.2 0-3.95 2.33-4.24 5.44a2.4 2.4 0 0 0-.76-.09 1.91 1.91 0 0 0-1 .31c-.7-2.54-2.56-4.4-4.7-4.4zm4 6.6c0 3.1-1.8 5.6-4 5.6s-4-2.5-4-5.6 1.8-5.6 4-5.6 4 2.5 4 5.6zm-7 29.82c-.03.14-.6 3.5 1.12 8.75.38 1.1.4 1.93.07 2.45-.45.7-1.6.88-2.64 1-2.9.25-6.55-.08-10.85-1-6.34-1.33-9.56-4.47-10.33-5.3l2.1-5.45 6.78-22.16c.58-.16 1.13-.4 1.63-.75.08.3.16.6.22.88.53 2.22 2.42 4.1 5.96 5.93 2.5 1.3 5.52 2.5 8.25 3.06l-2.3 12.6zm13.6-23.2c-.9 5.15-3.3 8.7-6.56 9.7-3 .94-8.62-1.07-12.52-3.07-3.2-1.65-5-3.38-5.44-5.27a24.44 24.44 0 0 0-.35-1.35l-.25-1.25c-.88 1.16-2.2 1.92-3.7 1.92-2.65 0-4.8-2.33-4.8-5.2s2.15-5.2 4.8-5.2c1.2 0 2.28.48 3.12 1.27a3.37 3.37 0 0 1 .29.35l.23.36c.07.12.28.38.46.5.4.3.8.44 1.14.52l.93.2c.92.08 1.54-.14 2.2-.45a5.42 5.42 0 0 0 .9-.6l3.95.67c0 .08-.01.17-.01.25 0 3.6 2.2 6.6 5 6.6 2.7 0 5-3 5-6.6a8.76 8.76 0 0 0-.07-1.03c.05-.05.1-.1.17-.14-.01.1.01.23.07.35.5 1.3 1.4 3.8 1.3 4.7s-.85 1-1.2 1.1c-.45.12-.75.45-.65.9.12.58.65.63.95.6.8-.1 2.2-.9 2.3-2.4a4.77 4.77 0 0 0-.04-.82c.76 1 1.76 1.62 2.88 1.62.04 0 .08-.01.12-.01l-.22 1.75zm.32-2.77c-.07.01-.15.02-.22.02-1.78 0-3.3-2.45-3.3-5.35s1.5-5.35 3.3-5.35a2.01 2.01 0 0 1 .69.13c0 3-.16 7.2-.47 10.55zm1.47-9.9c.95.95 1.6 2.66 1.6 4.56 0 2.18-.85 4.1-2.02 4.93.26-3.05.4-6.68.43-9.5z"/><path xmlns="http://www.w3.org/2000/svg" d="M166.1 427.2l8.2-36.7 27.3 7-5.3 23.42zm76.8 3.4l.1-37.5 28.2.9.47 26.92z" fill="#fff"/><path xmlns="http://www.w3.org/2000/svg" d="M233.42 448.2c-.02.01-.03.02-.05.03-.05.05-.1.12-.15.17l.2-.2z"/><path xmlns="http://www.w3.org/2000/svg" d="M312.58 444.2c.01.78-.3.38-.2-.6l.1.25c-.01-.55-.06-.74-.03-1.1.06.33.18.2.16-.65l.15.56-.26-1.6c.01-.15-.04-.43-.08-.66-.07-.22-.15-.46-.26-.66-.22-.4-.5-.77-.77-1.05l-1.23-1.17s-.55-.43-1.2-.8c-.64-.38-1.36-.73-1.66-.78.5.14-.73-.56-.3-.5-.67-.2-2.43-.95-3.04-1.43l.14.05-6.5-3.57c.03.18-1.1-.56-.9-.24-2.4-1.17-4-2.77-5.1-2.77-1.06-.6-1.16-.85-1.68-1.2l.26.12-3.96-2.35c-.75-.4-1-.23-2.25-1.07.47.16-.06-.14-.54-.43.32.17.43.2-.16-.25-.1-.03-.25-.1-.4-.16 0-.01-.02-.03 0-.03-.82-.46-.7-.35-.33-.1-.03 0-.01.04.1.13-.76-.63-2.32-1.42-2.32-1.64l-.88-.52-.42-.25-.22-.12c-.04-.06-.06-.1-.1-.2l-.2-.4-.43-.84c-.38-.6-.93-1.07-1.57-1.32-.32-.13-.65-.2-1-.24s-.7.02-.97.06c-.14-.03-.07-.08.12-.14.15-.06.58-.13 1-.08a4.71 4.71 0 0 0-.53-.03l-.48.04-.83.1c0-.07.24-.1.54-.15l.48-.05c.2-.02.4-.02.58-.01-.16-.02-.32-.04-.5-.03h-.4l-.76.07-1.56.22-.43.07c-.03-.3-.05-.62-.04-.94-.1-.55.15.5.07-.34.1-.03.07.4.14.17-.06-.8.07-1.34-.01-2.34l.07-.04c-.16-1.3.06-2.47-.1-3.34-.08-1.35.2-.9.04-2.3l.1-.52a3.66 3.66 0 0 0 .84-.11c.4-.1.77-.24 1.12-.43.7-.4 1.28-1 1.62-1.73.17-.36.3-.74.37-1.13.07-.43.06-.74.08-1.05l.08-1.9.35-7.42.18-.85c.23-.36-.13-5.38.1-6.1l-.02-2.27c.06-.63.15-1.97.16-.84l.03-3.65.2-2.24c.4-8.25.37-15.28.72-23.97.32-5.2.58-12.73.8-20.36.3-7.65.25-15.43 0-21.1-.4-7.97-.6-16.55-.44-25.2-.04-8.73-.65-17.4-1.47-25.53a15.89 15.89 0 0 0-.1-1.15l-.07-.52c-.02-.13-.04-.22-.04-.2l-1.3-14.87-1-10.4-2.06-18.74c-.68-5.57-1.27-9.42-1.4-8.45-.05.3-.04 1.1.01 2.46l-.26-2.43h-2.75l-.03-.44v-.06c-.01-.01-.04 0-.05 0h-.33l-.44-.01h-1.63l-4-.03c-2.64-.01-5.25 0-7.8.03-.28-.02-.78-.01-1.22 0h-.56l-.23.02-15.8-.15s-52.65-.45-37.47.66l-2.6-.02c-.4 2.3-.9 5.5-1.46 9.4 2.83-25.1-1.53 2-1.53 2-2.8 16.95-3.74 25.8-6.63 46.04l-5.88 40.94-4.32 26.67c-.53 4.1-2.03 11.22-2.73 16.05l-.46 1.84c-.24 1.66-.55 3.6-.92 5.26l-.02-.1c-.36 2.5-.92 5.26-1.1 6.5l-.02-.1-.53 3 .04-.52c-.7 4.32-1.5 8.76-2.24 12.67l.2-.3c-1.68 8.34-1.94 11.45-3.5 18.96l-.02-.1c-.34 2.4-.7 4.54-1.06 6.56l-.14.75a4.64 4.64 0 0 0-.08.94c.01.65.2 1.3.5 1.85.6 1.13 1.85 1.9 3.12 2l3.2.28c-.13.72-.26 1.47-.5 2.25l-.01.33-.03.1c.03 0 0 .35-.04.57-.12.2-.15-.05-.32.7-.2.57-.34 1.68-.48 2.46.1-.4.1-.27.1-.1-.08.37-.2.57-.23.86l-.1.02c.12-.13-.12 1-.12 1.14-.12.2.07-.6.04-.7l-.5 2.24c-.1.8.12-.12.12.27-.14.7-.23 1.4-.46 2.2l.14-.24c-.04.26-.1.5-.13.7l-3.26.34c-.3.02-.6.1-.86.22a2.55 2.55 0 0 0-1.03.52c-.46.4-.94 1.08-1.04 2.05v-.04l-.58 3.4-.04-.14c-.33 3-.5 4.9-.4 7.02-.32.32-.16 2.5-.25 3.22l-.02-.07c.2 1.86-.16 3.85.18 5.65-.03-.07-.1-.1-.14-.52.1 1.32.42 3.1.3 3.25.16 1 .8 2.1 1.78 2.7.95.62 2.1.82 3.05.8 1.7-.02 3.3-.07 4.28-.2l-.14.05c1.13-.18 1.46-.03 2.73-.12.07.02.16.03.14.04 1.23-.18 3.6-.03 4.6-.1l.06.1 2.45-.03-.92-.02c.32-.3 1.85.2 3.63-.01 1.66.04 3.37-.64 5.1-.5.82-.14-.73.23.5.12.04.16-.58.1-.26.23 1.2-.08 1.98.16 3.48.05l.06.12c1.95-.23 3.67.16 4.97-.06 2-.1 1.35.37 3.44.12l.8.17c.9.03.64-.2 1.63-.13-.06.1 1.25.08.67.18 2.24.16 4.56-.24 7.5.03.64-.2 2.13-.1 2.6-.24.08.1 2.98.01 1.3.2-.14.02-.4.01-.38-.02l-.2.12c1.7.23 3.06-.13 4.73-.1-.5-.04-1.15-.03-.7-.1h1.55l-.32.1 2.3.06-.32-.13c1.13.06 1.53.28 2.8.1.58-.1-1.07-.17.12-.2l5.7.25c-.18-.14.34-.14.87-.17l.06.12c.5-.04.8-.05 1.02-.03.24.01.36.04.48.06s.24.06.5.02c.25-.03.65-.1 1.26-.44.14-.14.28-.3.4-.46.5-.45.7-.85.86-1.12s.23-.45.3-.63c.07-.2.14-.4.16-.72a2.91 2.91 0 0 0-.03-.51l-.08-.6c.01.78-.3.38-.2-.6l.1.25c-.01-.55-.06-.74-.03-1.1.06.33.18.2.16-.65l.15.56a23.13 23.13 0 0 0-.26-1.6c.01-.15-.04-.43-.08-.66-.07-.22-.15-.46-.26-.66-.22-.4-.5-.77-.77-1.05-.55-.57-1.07-.95-1.23-1.17 0 0-.55-.43-1.2-.8-.64-.38-1.36-.73-1.66-.78.5.14-.73-.56-.3-.5-.67-.2-2.43-.95-3.04-1.43l.14.05c-2.44-1.44-4.37-2.15-6.5-3.57.03.18-1.1-.56-.9-.24-2.4-1.17-4-2.77-5.1-2.77-1.06-.6-1.16-.85-1.68-1.2l.26.12a90.06 90.06 0 0 1-3.96-2.35c-.75-.4-1-.23-2.25-1.07.47.16-.06-.14-.54-.43.32.17.43.2-.16-.25-.1-.03-.25-.1-.4-.16 0-.01-.02-.03 0-.03-.82-.46-.7-.35-.33-.1-.03 0-.01.04.1.13-.76-.63-2.32-1.42-2.32-1.64l-.88-.52c-.14-.08-.28-.16-.42-.25l-.22-.12c-.04-.06-.06-.1-.1-.2l-.2-.4c-.14-.28-.23-.5-.43-.84-.38-.6-.93-1.07-1.57-1.32-.32-.13-.65-.2-1-.24-.08-.01-.17 0-.25 0 .01-.06.02-.12.04-.18.12 0 .24 0 .36.01-.12-.02-.24-.02-.36-.02.01-.03.01-.05.02-.08h.1c-.03 0-.06 0-.1-.01.13-.48.3-.92.4-1.62l.08-.02c.15-1.28.63-2.34.7-3.2.23-1.3.4-.82.57-2.2l.05-.12 1.38.1c1.55.05 3.05-.96 3.65-2.34-.32.5-.74.93-1.23 1.23.88-.74 1.1-1.42 1.26-1.75a2.44 2.44 0 0 1 .27-.52c.13-.2.23-.4.8-2.2l-.2-.02c1.77-5.2 3.06-8.18 4.87-13.2l17.8-54.32c.66 5.76.92 10.53 2 17.53-.18-1.16-.02.5-.06.42.54 4.3 1.1 8.93 1.38 8.96.36 3.15.2 2.57.14 3 .12-.03.5 2.7.78 5.15l-.18-1.13.85 7.04.07-1.4c.36 3.74-.18.98.3 4.55l.2-.07c.56 5.17.6 8.23 1.05 13.25l.9 7.86.23 1.98.12 1 .06.5a4.7 4.7 0 0 0 .13.63 4.4 4.4 0 0 0 3.72 3.15c.43.06.87.02 1.17.01l1-.05.54-.03c-.05 1.2.13 2.47.02 3.85l.06.33v.1c.03 0 .08.35.1.58-.07.22-.16-.02-.16.76-.07.6.03 1.74.06 2.55.01-.43.05-.3.08-.1 0 .4-.07.6-.04.9l-.1.04c.1-.15.1 1 .13 1.16-.07.22-.06-.6-.1-.7l.01 2.33c.01.07.01.12.02.17l-.64.07c-.3.02-.6.1-.86.22a2.55 2.55 0 0 0-1.03.52c-.46.4-.94 1.08-1.04 2.05v-.04l-.58 3.4-.04-.14c-.33 3-.5 4.9-.4 7.02-.32.32-.16 2.5-.25 3.22l-.02-.07c.2 1.86-.16 3.85.18 5.65-.03-.07-.1-.1-.14-.52.1 1.32.42 3.1.3 3.25.16 1 .8 2.1 1.78 2.7.95.62 2.1.82 3.05.8 1.7-.02 3.3-.07 4.28-.2l-.14.05c1.13-.18 1.46-.03 2.73-.12.07.02.16.03.14.04 1.23-.18 3.6-.03 4.6-.1l.06.1 2.45-.03-.92-.02c.32-.3 1.85.2 3.63-.01 1.66.04 3.37-.64 5.1-.5.82-.14-.73.23.5.12.04.16-.58.1-.26.23 1.2-.08 1.98.16 3.48.05l.06.12c1.95-.23 3.67.16 4.97-.06 2-.1 1.35.37 3.44.12l.8.17c.9.03.64-.2 1.63-.13-.06.1 1.25.08.67.18 2.24.16 4.56-.24 7.5.03.64-.2 2.13-.1 2.6-.24.08.1 2.98.01 1.3.2-.14.02-.4.01-.38-.02l-.2.12c1.7.23 3.06-.13 4.73-.1-.5-.04-1.15-.03-.7-.1l1.55.01-.32.1 2.3.06-.32-.13c1.13.06 1.53.28 2.8.1.58-.1-1.07-.17.12-.2l5.7.25c-.18-.14.34-.14.87-.17l.06.12c.5-.04.8-.05 1.02-.03.24.01.36.04.48.06s.24.06.5.02c.25-.03.65-.1 1.26-.44.14-.14.28-.3.4-.46.5-.45.7-.85.86-1.12s.23-.45.3-.63c.07-.2.14-.4.16-.72a2.91 2.91 0 0 0-.03-.51c.05-.08.02-.27-.01-.52zM196.7 416.5l-.52.06c0-.07.24-.1.54-.15 0 .03-.01.06-.02.1zm1.6-6.8l-.2.52c-.5 1.96-.73 3.66-1.23 5.73-.04.12-.07.28-.1.4-.2.02-.4.03-.62.06-.5.06-1.03.14-1.56.22-1.06.17-2.16.34-3.33.36l-.47.16h-.14c.01.06-.5.18-.84.24-.34-.08 0-.27-1.15-.14-.92-.02-2.58.32-3.76.5.64-.05.44.04.17.1-.57.06-.92-.02-1.35.08l-.07-.15c.24.12-1.48.3-1.7.4-.34-.08.88-.2 1.02-.3l-3.45.38c-1.22.24.24.13-.34.32-1.08.14-2.13.36-3.38.4l.4.1c-2.03.32-3.25.43-4.64.43l-3.04.57 1.13-5.82 1.67-6.76a184.94 184.94 0 0 0 8.29.48c-1.25-.04.53.1.42.14 4.6.28 9.5.6 9.6.33 3.35.24 2.72.28 3.15.42-.01-.13 2.9.03 5.5.2l-1.2-.04 1.3.08c-.04.2-.04.28-.07.55zm44.2-1.2h.05l.01.52c-.05 0-.06-.25-.06-.52zm.1 0h.06v.06c-.02.07-.04.03-.06-.06zm.98 8.43c.05-3.8.2-5.1.17-8.5l.2-.01 4.02-.2 8.02-.4 14.93-.72c-.02.16-.04.5-.07.2 0 .52.03.53.07.9l-.07.56c-.03 2.06.16 3.8.17 5.97-.03.6-.04 1.3-.03 2.06-.7.1-1.4.17-2.13.18l-.47.16h-.14c.01.06-.5.18-.84.24-.34-.08 0-.27-1.15-.14-.92-.02-2.58.32-3.76.5.64-.05.44.04.17.1-.57.06-.92-.02-1.35.08l-.07-.15c.24.12-1.48.3-1.7.4-.34-.08.88-.2 1.02-.3l-3.45.38c-1.22.24.24.13-.34.32-1.08.14-2.13.36-3.38.4l.4.1c-2.03.32-3.25.43-4.64.43l-3.27.6-2.22.23c-.06-1-.08-2.12-.1-3.43z"/><path xmlns="http://www.w3.org/2000/svg" d="M311 448.2c-.02.01-.03.02-.05.03-.05.05-.1.12-.15.17l.2-.2z"/><g xmlns="http://www.w3.org/2000/svg" fill="#fff"><path d="M175.35 447.16l-.34-.14c1.06.1 1.96-.02 2.9-.05.5-.14-.74-.17.3-.3l2.94-.03c-.12.1-1.16.08-.88.2.18-.06 1.65-.08 1.46-.23l.05.16c.38-.05.66.06 1.15.06.24-.04.4-.1-.14-.13 1-.07 2.44-.24 3.2-.13.98-.01.68.14.96.26.3-.02.74-.1.73-.15l.12.02.4-.1c1.98.2 3.77-.25 5.45-.03-.44.03-1.24-.03-1.25.1l1.42-.04c-.58.04-1.05.12-.82.2l6.1-.32c.1.18 1.58.03 2.4.16-.1-.03-.15-.05-.13-.07-.37-.01-.5-.05.3-.1-.01.01.01.02.02.03l.35-.07c.63.07.53.1.23.13.48 0 1-.02.6.08 1.28.06 1.4-.2 2.1-.26l3.9-.05-.24.03c.53.03.72.2 1.75.16.8-.57 2.67-.02 4.93-.2-.28-.18.87-.1.77-.25 2.18.17 3.9-.18 6.34-.04l-.12.02c.66.14 2.3.03 2.85-.1-.34.14.85.18.42.3.5-.2 2.64-.1 2.64-.1.4.17 2 0 3 .13.4-.07.68-.18.93-.34l-.27.22c.47-.12.56-.1.4.05.22-.05.3-.15.5-.33l-.03.18c.24-.14.3-.34.28-.43-.03-.1-.1-.07-.2.06.12-.44.1-.55.2-.68.07-.12.13-.27-.04-1.06l-.3-.44.1.15c-.12-.82-.05-1.05.02-1.1.07-.02.14-.1.04-.22l.12-.13c-.15.03-.25.02-.27.17h-.05-.02s-.02 0-.1-.01l-.64-.02-1.28-.06-2.28-.14c-1 .04.4.1-.1.2-1.08.2-1.42-.03-2.37-.1l.27.13-1.96-.05.27-.1-1.3-.01c-.37.1.2.07.6.1-1.4-.03-2.58.33-4 .1l.17-.12c-.01.04.2.04.32.02 1.42-.2-1.04-.12-1.1-.2-.4.16-1.67.04-2.2.25-2.5-.27-4.46.14-6.36-.02.5-.1-.62-.08-.57-.18-.84-.08-.62.15-1.38.13l-.7-.17c-1.77.25-1.2-.22-2.9-.1-1.1.22-2.56-.16-4.2.07l-.05-.12c-1.26.1-1.92-.12-2.95-.04-.27-.13.25-.07.22-.23-1.04.1.27-.27-.43-.12-1.46-.14-2.9.54-4.32.5-1.5.2-2.8-.3-3.08.02l.78.02-2.08.03-.06-.1c-.84.08-2.84-.06-3.9.12.01-.01-.06-.02-.12-.04-1.07.1-1.35-.06-2.3.13l.1-.05c-1.68.27-5.34.2-7.96.27-.08-.17-1.58-.1-2.68-.06.35-.01.38-.1.44-.1-1.5.2-3.16-.2-4.73.03l.06-.02c-.6-.1-2.43.18-2.7-.1a19.18 19.18 0 0 1-1.86.17l-.7.02c-.12 0-.24 0-.38-.01v.53l.03.54-.06-.1-.02 1.13c-.01.34.02.57.1.84.13.5.43.9.75 1.2.58.5 1.15.7 1.56.85a6.36 6.36 0 0 0 .77.05l3.4-.01 2.8-.28c1.12.1 2.16.12 3.9.01zm26.5-25.68c-.24.16-.4.1-.6.35-.12.1-.2.22-.3.33.04.14-.14.13-.12.26l-.07-.03c0 .05 0 .08-.05.07v-.02c.01.07-.05.07-.05.1l-.01-.02-.03.04v-.03c-.01.1-.07.14-.13.17l.06.06c-.17.02-.08.2-.25.2l-.01-.02c.04.28-.3.05-.26.32 0-.03-.04-.03-.05-.04-.04.07-.1.13.03.26-.04.03-.07-.01-.12-.05.05.06.04.1.01.14l-.01-.03-.07.1.1.1c-.08.01-.13-.12-.15-.05l.08.1c-.08.04-.24-.05-.36-.06-.3.2-.38.7-.77.76l-.07-.06c-.1-.1.06.2-.03.12l.01.07c-.02-.01-.06-.01-.06-.05-.03.02-.02.04-.01.08l-.08-.03c-.15.05-.13.24-.26.32-.24 0-.4.34-.48.53-.07.33-.65.16-.7.5-.02-.01-.01.04 0 .05l-.2.16s-.95.8.46.95v.02c.15-.04.23-.1.2-.26.13.12.1-.06.16-.04l.01.01c-.03-.16.2-.04.2-.18.01.01.04.05.03.06.03-.06.06-.14.14-.07.1-.12.27-.22.23-.4l.01.02c-.03-.12.04-.06.05-.14.01.01.02.01.02.01-.03-.12.1-.12.12-.2l.05.05.07-.1-.04.02c-.1-.15.14.03.12-.12.07-.03-.14-.4-.02-.38-.03-.1.07.13.07.04.07.07.02.06.08.1.01-.07.13.01.14-.08l.05.05c-.03-.16.2-.04.15-.18.03-.1.2.12.17-.05l.1.05c.04-.02-.06-.1.01-.1.04.05.08 0 .1.06.14 0 .06-.25.28-.2-.06-.1.04-.1-.01-.2.04.04.1-.1.13.05 0 .01-.01.02-.02 0l.04.06c.15.05.05-.15.13-.2-.03 0-.05.02-.07-.03l.06-.04.03.06.1-.05-.06-.05c.07-.01.17.08.14-.04-.02-.06-.1-.04-.08-.1.1-.01.22-.02.3-.06-.06-.06-.04-.07-.04-.1l.05.05c0-.14.14.1.15-.03l.03.04-.1-.13c-.04-.17.14.08.07-.13-.02.03-.12-.1-.07-.12l.04.06c.01-.03-.01-.06.02-.06.01.04.06.08.08.05l.04.08-.04-.15c.1.02.1-.1.18-.05 0 0 .12-.04.07-.14.03.07.1.04.14.12-.03-.08-.01-.2.08-.15v.01c.16-.03.1-.24.25-.24-.06-.06.02-.07-.07-.14.02-.16.32.02.12-.27.03-.05.1.01.14.01v.02a.57.57 0 0 1 .14-.16c.01-.05-.1-.17-.02-.2.03.06.04.03.06.02-.01.02.01.04.06.05-.01-.02-.01-.03-.01-.04.03-.04.01-.05-.01-.04-.01-.01-.02-.02-.03-.02.1.03.1-.1.17-.01.08-.1.07-.25.13-.36.05.03.06.1.05.12l.04-.07c.05.06 0 .06-.01.1.16.03.05-.22.2-.2l-.03-.06h.01c-.02-.02-.04-.07-.03-.1.06.04.1.12.14.08.08.02.07-.1.08-.17-.03.01-.05-.02-.06-.05.02-.02.08.02.07-.01l.07.07c-.07-.06-.01-.12-.03-.15.06.04.01.07.04.12l.1-.12c-.01-.1-.07-.06-.1-.14.02-.05.02-.13.1-.13l-.07-.05c.03-.1.08-.14.18-.12.06-.98-.52-.8-.52-.8-.37.1-.3.37-.52.64z"/><path d="M205.9 424.65c-.22.17-.38.1-.53.36-.1.1-.17.22-.25.33.05.13-.12.13-.1.25l-.07-.03c.01.04.01.08-.04.07v-.02c.01.06-.04.07-.03.1h-.01l-.02.04-.02-.03c0 .1-.05.14-.1.16l.07.06c-.16.03-.06.18-.22.2l-.01-.02c.07.26-.27.06-.22.32-.01-.03-.04-.03-.05-.04-.03.07-.07.13.05.25-.04.04-.07-.01-.12-.05.05.05.05.1.02.14l-.01-.03-.06.1.12.08c-.07.02-.14-.1-.15-.04l.1.08c-.07.04-.24-.04-.35-.04-.27.2-.3.67-.66.76l-.07-.05c-.1-.08.08.2-.02.12l.02.07c-.02-.01-.06-.01-.06-.04-.03.02-.01.04 0 .08l-.08-.03c-.14.05-.1.24-.22.32-.23.01-.34.34-.4.53-.04.32-.6.18-.63.52-.02-.01 0 .04.01.05l-.18.16s-.83.8.55.9l.02.02c.14-.05.2-.1.17-.26.14.1.1-.07.15-.05v.01c-.04-.15.2-.04.16-.18.01.01.04.05.03.06.02-.06.05-.14.12-.07.07-.1.23-.22.18-.4h.02c-.05-.1.03-.06.03-.13.01.01.02.01.02.01-.04-.1.1-.12.1-.2l.05.04.06-.1-.04.02c-.12-.14.14.02.1-.12.07-.04-.18-.37-.06-.36-.04-.08.08.12.07.03.07.06.03.06.1.1 0-.07.13.01.13-.1l.06.05c-.04-.15.18-.05.12-.18.01-.1.2.1.16-.06l.1.04c.04-.02-.07-.1-.01-.1.04.05.07 0 .1.06.14 0 .03-.24.24-.22-.07-.1.03-.1-.03-.18.04.03.1-.1.13.05 0 .01-.01.02-.02 0l.05.06c.15.04.04-.15.1-.2-.03 0-.05.02-.07-.02l.05-.04.04.05.1-.05-.06-.04c.06-.01.17.07.13-.05-.03-.06-.1-.04-.1-.1a.96.96 0 0 0 .28-.07c-.07-.05-.05-.07-.05-.1l.06.05c-.01-.14.14.1.14-.03l.03.04-.1-.12c-.05-.16.14.08.06-.13-.01.03-.13-.1-.08-.1l.04.06c.01-.03-.01-.05.01-.06.02.04.07.08.1.04l.05.08-.05-.14c.1.02.08-.1.16-.05 0 0 .1-.04.05-.14.04.06.1.04.14.1-.04-.07-.03-.18.06-.15v.01c.15-.03.06-.23.2-.24-.07-.06.01-.07-.08-.13 0-.16.3 0 .1-.26.02-.05.1.01.13 0h0c.05-.1.06-.1.12-.16 0-.05-.1-.16-.04-.18.03.06.04.03.06.01 0 .02.01.04.06.04-.01-.02-.02-.03-.02-.04.02-.03 0-.04-.02-.04-.01-.01-.02-.01-.03-.02.1.03.08-.1.16-.02.07-.1.04-.25.08-.35.05.03.07.08.06.12l.03-.07c.06.06.01.06 0 .1.15.03.03-.22.18-.2l-.03-.06h.01a.18.18 0 0 1-.04-.09c.06.04.12.1.15.07.08.02.05-.1.06-.17-.03.01-.05-.02-.06-.05.02-.02.08.02.07-.02l.07.06c-.07-.05-.03-.1-.05-.15.06.04.02.07.05.1l.1-.12c-.02-.1-.07-.05-.1-.13.02-.05 0-.13.08-.13l-.07-.05a.11.11 0 0 1 .16-.12c-.04-.95-.58-.74-.58-.74-.33.13-.25.4-.4.66zm5.47 2.85c-.2.16-.36.1-.5.34-.1.08-.15.2-.22.3.06.13-.1.12-.07.24l-.07-.03c.01.04.01.08-.03.07l-.01-.02c.02.06-.03.07-.02.1l-.01-.02-.02.04-.02-.03c0 .08-.04.13-.1.16l.07.05c-.15.02-.05.18-.2.18l-.01-.02c.08.25-.26.05-.2.3-.01-.03-.04-.02-.05-.04-.02.06-.06.12.07.24-.03.03-.07-.01-.12-.05.06.05.05.1.03.13l-.01-.03-.05.1.12.08c-.07.01-.14-.1-.15-.04l.1.08c-.07.04-.23-.04-.34-.05-.24.2-.24.64-.6.72l-.07-.05c-.1-.08.1.2-.01.1l.02.06c-.02-.01-.05-.01-.07-.04-.02.02-.01.03.01.08l-.08-.03c-.13.05-.08.23-.2.3-.22.01-.3.32-.35.5-.01.3-.58.16-.57.5-.02-.01 0 .04.01.05l-.16.15s-.75.76.6.87h.02c.13-.04.2-.1.14-.25.14.1.08-.06.14-.05h.01c-.05-.14.18-.04.14-.17.01.01.04.04.03.06.02-.05.04-.13.1-.07.06-.1.2-.2.14-.37l.02.02c-.05-.1.03-.05.02-.13.01.01.02.01.02.01-.05-.1.08-.12.08-.18l.05.04.05-.08-.03.02c-.13-.13.14.02.1-.1.06-.03-.2-.35-.08-.35-.04-.08.08.1.07.03.07.06.03.06.1.1 0-.07.13.01.12-.08l.06.05c-.05-.15.17-.04.1-.17.01-.1.2.1.15-.05l.1.04c.04-.02-.08-.1-.01-.1.05.04.07 0 .1.05.13 0 .02-.23.22-.2-.08-.1.02-.1-.04-.17.04.03.1-.08.13.05 0 .01 0 .02-.02 0l.05.05c.15.04.02-.14.08-.18-.03 0-.04.02-.07-.02l.05-.04.04.05.1-.04-.07-.04c.06-.01.17.07.12-.04-.03-.06-.1-.04-.1-.1.08-.01.2-.02.27-.07-.07-.05-.05-.07-.05-.1l.06.05c-.02-.13.14.1.13-.03l.03.04-.1-.12c-.06-.15.14.07.05-.12-.01.03-.13-.1-.08-.1l.05.06c0-.03-.01-.05.01-.05.02.04.07.08.1.04l.05.08-.06-.13c.1.02.07-.1.15-.05 0 0 .1-.04.04-.13.04.06.1.04.14.1-.04-.07-.04-.17.05-.14v.01c.14-.03.04-.22.2-.23-.07-.05 0-.06-.1-.13-.01-.15.3.01.07-.25.02-.05.1.01.13 0l.01.02c.04-.1.05-.1.1-.15 0-.05-.12-.16-.05-.18.03.06.04.03.06.01 0 .02.01.04.06.04-.01-.02-.02-.03-.02-.04.02-.03 0-.04-.02-.03-.01-.01-.02-.01-.03-.02.1.03.07-.08.15-.02.06-.1.03-.24.06-.33.05.03.07.08.07.1l.03-.06c.06.05.01.06.01.1.15.03.01-.2.16-.2l-.03-.06h.01c-.03-.02-.05-.07-.04-.1.06.04.12.1.15.07.07.02.04-.1.05-.16-.03.01-.05-.02-.06-.05.01-.02.07.02.06-.02l.07.06c-.07-.05-.03-.1-.05-.14.06.04.02.07.06.1l.08-.1c-.02-.08-.07-.05-.12-.13.02-.04-.01-.12.07-.12l-.07-.04a.11.11 0 0 1 .15-.12c-.1-.9-.6-.72-.6-.72-.38.13-.28.38-.42.64zm41.56 19.66l-.34-.14c1.06.1 1.96-.02 2.9-.05.5-.14-.74-.17.3-.3l2.94-.03c-.12.1-1.16.08-.88.2.18-.06 1.65-.08 1.46-.23l.05.16c.38-.05.66.06 1.15.06.24-.04.4-.1-.14-.13 1-.07 2.44-.24 3.2-.13.98-.01.68.14.96.26.3-.02.74-.1.73-.15l.12.02.4-.1c1.98.2 3.77-.25 5.45-.03-.44.03-1.24-.03-1.25.1l1.42-.04c-.58.04-1.05.12-.82.2l6.1-.32c.1.18 1.58.03 2.4.16-.1-.03-.15-.05-.13-.07-.37-.01-.5-.05.3-.1-.01.01.01.02.02.03l.35-.07c.63.07.53.1.23.13.48 0 1-.02.6.08 1.28.06 1.4-.2 2.1-.26l3.9-.05-.24.03c.53.03.72.2 1.75.16.8-.57 2.67-.02 4.93-.2-.28-.18.87-.1.77-.25 2.18.17 3.9-.18 6.34-.04l-.12.02c.66.14 2.3.03 2.85-.1-.34.14.85.18.42.3.5-.2 2.64-.1 2.64-.1.4.17 2 0 3 .13.4-.07.68-.18.93-.34l-.27.22c.47-.12.56-.1.4.05.22-.05.3-.15.5-.33l-.03.18c.24-.14.3-.34.28-.43-.03-.1-.1-.07-.2.06.12-.44.1-.55.2-.68.07-.12.13-.27-.04-1.06l-.3-.44.1.15c-.12-.82-.05-1.05.02-1.1.07-.02.14-.1.04-.22l.12-.13c-.15.03-.25.02-.27.17h-.05-.02s-.02 0-.1-.01l-.64-.02-1.28-.06-2.28-.14c-1 .04.4.1-.1.2-1.08.2-1.42-.03-2.37-.1l.27.13-1.96-.05.27-.1-1.3-.01c-.37.1.2.07.6.1-1.4-.03-2.58.33-4 .1l.17-.12c-.01.04.2.04.32.02 1.42-.2-1.04-.12-1.1-.2-.4.16-1.67.04-2.2.25-2.5-.27-4.46.14-6.36-.02.5-.1-.62-.08-.57-.18-.84-.08-.62.15-1.38.13l-.7-.17c-1.77.25-1.2-.22-2.9-.1-1.1.22-2.56-.16-4.2.07l-.05-.12c-1.26.1-1.92-.12-2.95-.04-.27-.13.25-.07.22-.23-1.04.1.27-.27-.43-.12-1.46-.14-2.9.54-4.32.5-1.5.2-2.8-.3-3.08.02l.78.02-2.08.03-.06-.1c-.84.08-2.84-.06-3.9.12.01-.01-.06-.02-.12-.04-1.07.1-1.35-.06-2.3.13l.1-.05c-1.68.27-5.34.2-7.96.27-.08-.17-1.58-.1-2.68-.06.35-.01.38-.1.44-.1-1.5.2-3.16-.2-4.73.03l.06-.02c-.6-.1-2.43.18-2.7-.1a19.18 19.18 0 0 1-1.86.17l-.7.02c-.12 0-.24 0-.38-.01v.53l.03.54-.06-.1-.02 1.13c-.01.34.02.57.1.84.13.5.43.9.75 1.2.58.5 1.15.7 1.56.85a6.36 6.36 0 0 0 .77.05l3.4-.01 2.8-.28c1.13.1 2.17.12 3.9.01zm26.5-25.68c-.24.16-.4.1-.6.35-.12.1-.2.22-.3.33.04.14-.14.13-.12.26l-.07-.03c0 .05 0 .08-.05.07v-.02c.01.07-.05.07-.05.1l-.01-.02-.03.04v-.03c-.01.1-.07.14-.13.17l.06.06c-.17.02-.08.2-.25.2l-.01-.02c.04.28-.3.05-.26.32 0-.03-.04-.03-.05-.04-.04.07-.1.13.03.26-.04.03-.07-.01-.12-.05.05.06.04.1.01.14l-.01-.03-.07.1.1.1c-.08.01-.13-.12-.15-.05l.08.1c-.08.04-.24-.05-.36-.06-.3.2-.38.7-.77.76l-.07-.06c-.1-.1.06.2-.03.12v.07c-.02-.01-.06-.01-.06-.05-.03.02-.02.04-.01.08l-.08-.03c-.15.05-.13.24-.26.32-.24 0-.4.34-.48.53-.07.33-.65.16-.7.5-.02-.01-.01.04 0 .05l-.2.16s-.95.8.46.95l.01.02c.15-.04.23-.1.2-.26.13.12.1-.06.16-.04l.01.01c-.03-.16.2-.04.2-.18.01.01.04.05.03.06.03-.06.06-.14.14-.07.1-.12.27-.22.23-.4l.01.02c-.03-.12.04-.06.05-.14.01.01.02.01.02.01-.03-.12.1-.12.12-.2l.05.05.07-.1-.04.02c-.1-.15.14.03.12-.12.07-.03-.14-.4-.02-.38-.03-.1.07.13.07.04.07.07.02.06.08.1.01-.07.13.01.14-.08l.05.05c-.03-.16.2-.04.15-.18.03-.1.2.12.17-.05l.1.05c.04-.02-.06-.1.01-.1.04.05.08 0 .1.06.14 0 .06-.25.28-.2-.06-.1.04-.1-.01-.2.04.04.1-.1.13.05 0 .01-.01.02-.02 0l.04.06c.15.05.05-.15.13-.2-.03 0-.05.02-.07-.03l.06-.04.03.06.1-.05-.06-.05c.07-.01.17.08.14-.04-.02-.06-.1-.04-.08-.1.1-.01.22-.02.3-.06-.06-.06-.04-.07-.04-.1l.05.05c0-.14.14.1.15-.03l.03.04-.1-.13c-.04-.17.14.08.07-.13-.02.03-.12-.1-.07-.12l.04.06c.01-.03-.01-.06.02-.06.01.04.06.08.08.05l.04.08-.04-.15c.1.02.1-.1.18-.05 0 0 .12-.04.07-.14.03.07.1.04.14.12-.03-.08-.01-.2.08-.15v.01c.16-.03.1-.24.25-.24-.06-.06.02-.07-.07-.14.02-.16.32.02.12-.27.03-.05.1.01.14.01v.02a.57.57 0 0 1 .14-.16c.01-.05-.1-.17-.02-.2.03.06.04.03.06.02-.01.02.01.04.06.05-.01-.02-.01-.03-.01-.04.03-.04.01-.05-.01-.04-.01-.01-.02-.02-.03-.02.1.03.1-.1.17-.01.08-.1.07-.25.13-.36.05.03.06.1.05.12l.04-.07c.05.06 0 .06-.01.1.16.03.05-.22.2-.2l-.03-.06h.01c-.02-.02-.04-.07-.03-.1.06.04.1.12.14.08.08.02.07-.1.08-.17-.03.01-.05-.02-.06-.05.02-.02.08.02.07-.01l.07.07c-.07-.06-.01-.12-.03-.15.06.04.01.07.04.12l.1-.12c-.01-.1-.07-.06-.1-.14.02-.05.02-.13.1-.13l-.07-.05c.03-.1.08-.14.18-.12.06-.98-.52-.8-.52-.8-.38.1-.32.37-.52.64z"/><path d="M283.48 424.65c-.22.17-.38.1-.53.36-.1.1-.17.22-.25.33.05.13-.12.13-.1.25l-.07-.03c.01.04.01.08-.04.07v-.02c.01.06-.04.07-.03.1h-.01l-.02.04-.02-.03c0 .1-.05.14-.1.16l.07.06c-.16.03-.06.18-.22.2l-.01-.02c.07.26-.27.06-.22.32-.01-.03-.04-.03-.05-.04-.03.07-.07.13.05.25-.04.04-.07-.01-.12-.05.05.05.05.1.02.14l-.01-.03-.06.1.12.08c-.07.02-.14-.1-.15-.04l.1.08c-.07.04-.24-.04-.35-.04-.27.2-.3.67-.66.76l-.07-.05c-.1-.08.08.2-.02.12l.02.07c-.02-.01-.06-.01-.06-.04-.03.02-.01.04 0 .08l-.08-.03c-.14.05-.1.24-.22.32-.23.01-.34.34-.4.53-.04.32-.6.18-.63.52-.02-.01 0 .04.01.05l-.18.16s-.83.8.55.9l.02.02c.14-.05.2-.1.17-.26.14.1.1-.07.15-.05l.01.01c-.04-.15.2-.04.16-.18.01.01.04.05.03.06.02-.06.05-.14.12-.07.07-.1.23-.22.18-.4h.02c-.05-.1.03-.06.03-.13.01.01.02.01.02.01-.04-.1.1-.12.1-.2l.05.04.06-.1-.04.02c-.12-.14.14.02.1-.12.07-.04-.18-.37-.06-.36-.04-.08.08.12.07.03.07.06.03.06.1.1 0-.07.13.01.13-.1l.06.05c-.04-.15.18-.05.12-.18.01-.1.2.1.16-.06l.1.04c.04-.02-.07-.1-.01-.1.04.05.07 0 .1.06.14 0 .03-.24.24-.22-.07-.1.03-.1-.03-.18.04.03.1-.1.13.05 0 .01-.01.02-.02 0l.05.06c.15.04.04-.15.1-.2-.03 0-.05.02-.07-.02l.05-.04.04.05.1-.05-.06-.04c.06-.01.17.07.13-.05-.03-.06-.1-.04-.1-.1a.96.96 0 0 0 .28-.07c-.07-.05-.05-.07-.05-.1l.06.05c-.01-.14.14.1.14-.03l.03.04-.1-.12c-.05-.16.14.08.06-.13-.01.03-.13-.1-.08-.1l.04.06c.01-.03-.01-.05.01-.06.02.04.07.08.1.04l.05.08-.05-.14c.1.02.08-.1.16-.05 0 0 .1-.04.05-.14.04.06.1.04.14.1-.04-.07-.03-.18.06-.15v.01c.15-.03.06-.23.2-.24-.07-.06.01-.07-.08-.13 0-.16.3 0 .1-.26.02-.05.1.01.13 0h0c.05-.1.06-.1.12-.16 0-.05-.1-.16-.04-.18.03.06.04.03.06.01 0 .02.01.04.06.04-.01-.02-.02-.03-.02-.04.02-.03 0-.04-.02-.04-.01-.01-.02-.01-.03-.02.1.03.08-.1.16-.02.07-.1.04-.25.08-.35.05.03.07.08.06.12l.03-.07c.06.06.01.06 0 .1.15.03.03-.22.18-.2l-.03-.06h.01a.18.18 0 0 1-.04-.09c.06.04.12.1.15.07.08.02.05-.1.06-.17-.03.01-.05-.02-.06-.05.02-.02.08.02.07-.02l.07.06c-.07-.05-.03-.1-.05-.15.06.04.02.07.05.1l.1-.12c-.02-.1-.07-.05-.1-.13.02-.05 0-.13.08-.13l-.07-.05a.11.11 0 0 1 .16-.12c-.04-.95-.58-.74-.58-.74-.33.13-.24.4-.4.66zm5.47 2.85c-.2.16-.36.1-.5.34-.1.08-.15.2-.22.3.06.13-.1.12-.07.24l-.07-.03c.01.04.01.08-.03.07l-.01-.02c.02.06-.03.07-.02.1l-.01-.02-.02.04v-.03c0 .08-.04.13-.1.16l.07.05c-.15.02-.05.18-.2.18l-.01-.02c.08.25-.26.05-.2.3-.01-.03-.04-.02-.05-.04-.02.06-.06.12.07.24-.03.03-.07-.01-.12-.05.06.05.05.1.03.13v-.03l-.05.1.12.08c-.07.01-.14-.1-.15-.04l.1.08c-.07.04-.23-.04-.34-.05-.24.2-.24.64-.6.72l-.07-.05c-.1-.08.1.2-.01.1v.06c-.02-.01-.05-.01-.07-.04-.02.02-.01.03.01.08l-.08-.03c-.13.05-.08.23-.2.3-.22.01-.3.32-.35.5-.01.3-.58.16-.57.5-.02-.01 0 .04.01.05l-.16.15s-.75.76.6.87h.02c.13-.04.2-.1.14-.25.14.1.08-.06.14-.05h.01c-.05-.14.18-.04.14-.17.01.01.04.04.03.06.02-.05.04-.13.1-.07.06-.1.2-.2.14-.37l.02.02c-.05-.1.03-.05.02-.13.01.01.02.01.02.01-.05-.1.08-.12.08-.18l.05.04.05-.08-.03.02c-.13-.13.14.02.1-.1.06-.03-.2-.35-.08-.35-.04-.08.08.1.07.03.07.06.03.06.1.1 0-.07.13.01.12-.08l.06.05c-.05-.15.17-.04.1-.17.01-.1.2.1.15-.05l.1.04c.04-.02-.08-.1-.01-.1.05.04.07 0 .1.05.13 0 .02-.23.22-.2-.08-.1.02-.1-.04-.17.04.03.1-.08.13.05l.03.05c.15.04.02-.14.08-.18-.03 0-.04.02-.07-.02l.05-.04.04.05.1-.04-.07-.04c.06-.01.17.07.12-.04-.03-.06-.1-.04-.1-.1.08-.01.2-.02.27-.07-.07-.05-.05-.07-.05-.1l.06.05c-.02-.13.14.1.13-.03l.03.04-.1-.12c-.06-.15.14.07.05-.12-.01.03-.13-.1-.08-.1l.05.06c0-.03-.01-.05.01-.05.02.04.07.08.1.04l.05.08-.06-.13c.1.02.07-.1.15-.05 0 0 .1-.04.04-.13.04.06.1.04.14.1-.04-.07-.04-.17.05-.14v.01c.14-.03.04-.22.2-.23-.07-.05 0-.06-.1-.13-.01-.15.3.01.07-.25.02-.05.1.01.13 0l.01.02c.04-.1.05-.1.1-.15 0-.05-.12-.16-.05-.18.03.06.04.03.06.01 0 .02.01.04.06.04-.01-.02-.02-.03-.02-.04.02-.03 0-.04-.02-.03-.01-.01-.02-.01-.03-.02.1.03.07-.08.15-.02.06-.1.03-.24.06-.33.05.03.07.08.07.1l.03-.06c.06.05.01.06.01.1.15.03.01-.2.16-.2l-.03-.06h.01c-.03-.02-.05-.07-.04-.1.06.04.12.1.15.07.07.02.04-.1.05-.16-.03.01-.05-.02-.06-.05.01-.02.07.02.06-.02l.07.06c-.07-.05-.03-.1-.05-.14.06.04.02.07.06.1l.08-.1c-.02-.08-.07-.05-.12-.13.02-.04-.01-.12.07-.12l-.07-.04a.11.11 0 0 1 .15-.12c-.1-.9-.6-.72-.6-.72-.38.13-.28.38-.42.64zM266.3 206.8c0 3.1-.1 8.2-.3 10.6-.2 2.3-2.6 4.5-4.1 5.7l.2-16.3h-1.4l-.2 18.9 1.1-.7c.2-.1 5.5-3.6 5.7-7.5.2-2.5.3-7.7.3-10.7h-1.3zm-69.12 88.4h0l.01.2z"/><path d="M213.33 210.96c-1.5 6.25-1.95 9.55-3.45 17.04-1.42 6.57-1.95 8.28-3.32 15.1l-2.04 9.9c-.2 1.53-.88 4.18-1.15 5.98l-.22.68a16.57 16.57 0 0 1-.39 1.96l-.01-.04c-.14.93-.4 1.96-.46 2.42l-.01-.04-.23 1.12.01-.2a85.25 85.25 0 0 1-.96 4.72l.1-.1c-.75 3.1-.8 4.27-1.52 7.05l-.01-.04c-.52 3.6-1.33 5.58-1.9 9.3.07-.46-.08.2-.1.14-.33 1.7-.7 3.5-.53 3.56-.26 1.23-.26 1-.36 1.14.07.01-.12 1.08-.32 2.04l.06-.45L196 295l.25-.5c-.35 1.45-.25.33-.5 1.74l.12.01c-.45 2-.87 3.16-1.36 5.1l-5.08 24.38-.16.3c-.16.12-.25 2.12-.43 2.38l-.13.9c-.07.24-.2.76-.14.3-.18.8-.16.83-.24 1.43l-.26.85c-.73 3.2-1.15 5.94-1.9 9.3-1 4-2.46 11.66-3.3 16.07-1.1 6.2-3.12 13.28-4.23 19.64a4.84 4.84 0 0 0-.12.74l-1.23 5.78s-5.94 28.02-.42 6.94v.15c.73-3.15 1.17-5.14 1.5-7.35.24-.3.56-2.6.77-3.33v.07c.28-1.96.94-3.95 1.22-5.84 0 .07.04.12-.05.55.26-1.36.62-3.22.74-3.3.65-3.24 1.65-7.75 1.93-9.86v.15c.14-1.2.3-1.53.53-2.87.03-.07.05-.16.06-.15.17-1.3.77-3.76.95-4.8l.08-.05.52-2.57-.22.96c-.1-.37.52-1.92.8-3.8.4-1.74.37-3.6.84-5.4.1-.88-.02.8.18-.5.1-.02-.07.6.08.3.22-1.27.53-2.06.8-3.63l.1-.05c.3-2.06.9-3.82 1.06-5.2.38-2.1.5-1.36.83-3.58l.28-.83c.2-.93.02-.7.3-1.72.05.08.33-1.3.26-.68.6-2.33.86-4.8 1.68-7.85.02-.7.42-2.24.43-2.76.07-.07.66-3.12.4-1.35-.02.15-.08.42-.1.4l.03.22c.5-1.73.6-3.22 1-4.96-.13.5-.27 1.2-.22.73l.35-1.62v.35l.54-2.4-.14.32c.3-1.17.5-1.56.68-2.92.07-.62-.34 1.1-.1-.15l1.4-5.93c-.12.17-.01-.37.1-.93l.1-.05c.35-2.16.33-.75.7-2.9l-.02-.4c.26-1.95.37-1 .62-3.17-.16.84-.24.36.01-.67l.02.28c.1-.58.12-.77.2-1.15-.03.35.06.2.23-.64l-.03.58.2-1.62c.33-1.22.65-3.2.85-3.67 0 0 .6-2.64.62-3.27-.04.55.3-.9.28-.48.07-.7.43-2.74.68-3.54l-.02.16c.7-2.98.96-5.15 1.63-7.82-.1.1.23-1.3.05-.98.48-2.8 1.3-5.03 1.16-6.1.25-1.27.4-1.5.55-2.14l-.05.3 1-4.83c.15-.9.03-1.06.4-2.63-.05.52.08-.12.2-.7-.07.38-.07.5.13-.27 0-.1.03-.28.05-.44.01-.01.02-.04.02-.02.2-1 .13-.82.03-.37 0-.03-.02.01-.07.15.3-1 .6-2.85.73-2.95.6-2.97.93-5.1 1.4-7.58.1-.27.04.32-.1 1.04l.35-1.75c.08.03-.17 1-.26 1.56.56-2.05.77-4.32 1.4-6.73l.04-.52.04-.14c-.03 0 .04-.56.1-.92.14-.33.15.06.4-1.15.27-.94.54-2.72.76-3.98-.15.67-.15.45-.1.15.12-.6.27-.94.33-1.4l.1-.04c-.14.22.24-1.6.25-1.83.14-.33-.14.95-.12 1.1l.75-3.64c.2-1.3-.14.22-.1-.42.22-1.14.4-2.27.72-3.57l-.17.4c.4-2.16.67-3.44 1.05-4.86 2.7-16.1-.2-3.56-.2-3.56zm19.35 107.34c-.02 0-.05.06-.12.26l.12-.26zm4.52-10.1c-.01.04-.01.06-.02.08v-.08z"/><path d="M258.94 230.13v-.1l-1.13 4.2c-.22.15-.44 1.47-.6 1.88v-.04c-.18 1.13-.75 2.23-.93 3.32 0-.04-.04-.08.03-.32-.2.78-.46 1.84-.57 1.87l-1.45 5.63v-.1c-.1.7-.23.88-.4 1.64-.02.04-.05.1-.05.08-.1.76-.6 2.14-.7 2.75l-.08.02-.4 1.46.17-.54c.12.24-.42 1.07-.6 2.16-.3.98-.2 2.1-.58 3.12-.06.5-.01-.47-.16.28-.1 0 .04-.36-.1-.2-.16.73-.43 1.15-.62 2.06l-.08.02c-.2 1.2-.7 2.16-.8 2.96-.28 1.2-.44.74-.65 2.02l-.23.46c-.17.53.01.4-.2 1-.05-.05-.26.73-.22.37-.47 1.3-.63 2.75-1.3 4.46.01.4-.3 1.28-.3 1.6-.07.03-.5 1.77-.34.75.01-.1.06-.24.08-.22l-.04-.14c-.42.96-.43 1.84-.74 2.83.1-.3.22-.68.2-.4l-.28.92v-.2l-.43 1.36.13-.17c-.23.66-.43.86-.54 1.64-.04.36.28-.6.1.1l-1.15 3.33c.1-.08.02.22-.06.55l-.08.02c-.26 1.24-.3.4-.57 1.62l.04.24c-.18 1.13-.33.54-.5 1.8.13-.48.23-.18.02.4v-.17c-.08.33-.1.45-.17.66.02-.2-.07-.13-.2.35l.01-.35-.15.94c-.3.67-.53 1.8-.72 2.06 0 0-.5 1.48-.52 1.85.03-.32-.26.5-.26.24-.05.4-.34 1.57-.57 2l.02-.1-1.38 4.4c.1-.04-.2.74-.03.58-.4 1.6-1.13 2.8-1 3.46-.2.72-.35.82-.48 1.18l.04-.18-.85 2.72c-.13.5 0 .63-.33 1.5.03-.3-.07.06-.18.4.06-.2.06-.3-.12.13 0 .07-.02.17-.04.26-.01 0-.02.02-.02.01-.16.56-.1.47-.02.22.01.02.02 0 .07-.08-.26.55-.52 1.6-.64 1.64l-1.22 4.3c-.1.14-.04-.2.07-.6l-.3 1c-.07-.03.14-.58.23-.9-.5 1.13-.67 2.45-1.24 3.78l-.03.3-.04.08c.03.01-.03.33-.08.53-.13.17-.15-.06-.37.6-.24.5-.48 1.53-.67 2.25.14-.37.13-.24.1-.07-.1.34-.24.5-.3.78h-.1c.13-.1-.2.9-.2 1.05-.13.17.12-.54.1-.65l-.67 2.04c-.18.75.13-.1.1.27l-.65 2 .16-.2c-.34 1.22-.6 1.94-.95 2.72-2.4 9.16.24 2.18.24 2.18 1.37-3.46 1.76-5.36 3.1-9.57 1.27-3.68 1.76-4.6 2.95-8.45.62-1.82 1.22-3.78 1.78-5.58.16-.9.76-2.35 1-3.4l.2-.37c.08-.36.18-.77.33-1.1l.01.03c.1-.53.33-1.1.4-1.37l.01.03.2-.63-.01.12c.23-.92.53-1.85.8-2.66l-.1.04c.65-1.72.7-2.42 1.3-3.97l.01.03c.4-2.07 1.15-3.12 1.58-5.25-.05.27.08-.1.1-.07.27-.96.57-1.98.4-2.05.22-.7.23-.55.32-.62-.07-.02.08-.63.25-1.17l-.05.26.45-1.56-.23.26c.3-.8.23-.16.43-.96l-.12-.02c.37-1.13.74-1.75 1.15-2.83 1.43-4.58 2.52-9.64 3.93-13.87l.14-.17c.15-.05.15-1.23.3-1.37l.08-.5c.06-.13.17-.42.13-.17.14-.46.12-.48.17-.82l.22-.47c.57-1.8.86-3.4 1.44-5.3.8-2.26 1.9-6.63 2.5-9.15.8-3.56 2.45-7.5 3.26-11.16.05-.1.1-.43.08-.43l.95-3.28c-.02-.01 4.53-15.94.08-4.12z"/><path d="M243.24 284.17h0l-.02-.12z"/></g><g xmlns="http://www.w3.org/2000/svg" fill="#fff"><path d="M218.4 250.13c-.5-.7-1.8-2.4-2.8-3.5l-1-1.1s-.9-.8-1.3-4-3.5-35.7-3.6-40.6c-.2-6.3 3.6-20.6 5.4-25.6 1.3-3.65 1.95-5.63 2.23-6.64l-33.4-12.55c-4.1 11.8-4.77 16.37-5.12 22.7-.5 8.3 1.4 16.3 6 29.8 4.6 13.6 15.8 40.9 15.8 40.9s.6 6.4 5.1 12.7 5.9 7.43 6.77 7.52c1.17.22 1.13-1.02 1.13-1.02s1.9 2.1 3.2 1.7c1.3-.3.58-2.26.58-2.26s1.14 1.2 1.84.7-.08-2.74-.8-5.26c-.58-2.07-1.63-7.98-1.93-9.08-.2-1 2.28 2 3.48 3.4s2.62 1 1.22-1.8-2.3-5.3-2.8-6zm127.1-72.1l.2-.87c.64-.3 1.06-.82 1-1.74-.04-.7-.57-1.08-1.25-1.3-.05-.03-.1-.08-.15-.1-.04.01-.08.01-.12.02-.95-.25-2.1-.22-2.58-.22-.4.05-1.2-.01-1.95.08l-2.55-.28c-1-.1-.4-1.7 0-3.4.7-3 1.6-5.3.1-6.6-1-.8-2.4 1.9-4.3 4.8-.5.7-1.2 1.5-2.9 2.6-1.2.8-2.1 1.8-2.1 1.8s-1.1.6-4.2.1c-3.2-.5-35.2-7.1-39.8-8.4-6.1-1.6-14.3-9.7-17.1-14.1-5-7.8-14.8-24.9-14.8-24.9s-4.1 58.1 1.5 61.5c6.5 3.9 15.9 3.9 30.2 3.5s43.7-3.2 43.7-3.2 4.9.48 11.3-.64a6.93 6.93 0 0 0 1.3.04c1.8 0 2.4-.4 2.4-1.5 0-.38-.36-.64-.86-.8.07-.07.15-.14.26-.2.02-.01.04-.04.06-.05 1.4-.14 1.94-.6 1.94-1.75 0-.3-.22-.54-.55-.73l.18-.45c1.12-.16 1.93-.6 1.86-1.8-.03-.72-.34-1.14-.8-1.4zm-125.62 30.74l.15.03c0-.01-.04-.02-.15-.03zm37.64-.01c.01 0 .03 0 .04-.01-.03 0-.03.01-.04.01zm-31.86 1.2h0c-.02 0-.04.01-.05.01l.05-.01z"/><path d="M218.08 209.86l4.58.14 3-.04c.46-.13 1.26 0 1.8-.1l.2.07c.2-.04.4-.06.6-.02l-.01.02c.28-.05.6-.02.73-.05l-.01.02h.34l-.06.03a8.69 8.69 0 0 1 1.43-.04l-.04-.1c.94.1 1.3-.08 2.14.03l-.01.02c1.07-.23 1.7.16 2.8-.06-.14.03.06.04.05.07.5-.02 1.05-.04 1.06-.2.37 0 .3.05.35.12 0-.08.32-.1.6-.1l-.13.03.83-.03-.16-.14c.44.04.1.17.53.14v-.12c.6.02.97.2 1.56.3l7.37-.04.1.1c.04.13.63-.2.72-.07l.27-.06c.07.02.23.05.1.08.25 0 .25-.02.43-.05l.26.08c.97.06 1.8-.1 2.8-.06 1.22.16 3.53.01 4.86-.07 1.87-.2 4.04.32 5.95.1.06.02.22-.02.22-.04l1.75.02s8.48.05 2.04-1.02l.04-.03c-.96-.07-1.56-.08-2.22.06-.1-.17-.8-.02-1-.07l.02-.01c-.58.13-1.2-.1-1.77.01.02-.01.03-.06.16-.06-.4.02-.97.06-1-.04-.98.03-2.35-.02-2.97.14l.04-.03c-.36.1-.46.02-.86.07-.02-.01-.05-.02-.05-.03-.4.1-1.14.02-1.45.06l-.02-.07-.78.02h.3c-.1.18-.6-.12-1.15 0-.53-.02-1.07.38-1.62.3-.26.1.23-.14-.16-.07-.01-.1.18-.06.08-.14-.38.05-.63-.1-1.1-.03v-.07c-.62.14-1.16-.1-1.57.03-.64.06-.43-.22-1.1-.08l-.26-.1c-.28-.02-.2.12-.52.07.02-.06-.4-.05-.2-.1-.7-.1-1.44.14-2.38-.03-.2.12-.67.05-.83.14-.02-.05-.94-.01-.4-.13.05-.01.13-.01.12.01l.06-.07c-.53-.14-.97.08-1.5.05.16.02.36.02.23.07l-.5-.01.1-.06-.73-.04.1.08c-.36-.04-.48-.17-.9-.06-.18.06.34.1-.04.13l-1.8-.15c.06.1-.1.08-.28.1v-.07c-.65.1-.24-.16-.88-.08l.06-.05-.17.16c-.58.15-.3-.15-.96.05.25-.01.12.16-.2.13l.08-.07c-.17.02-.23.05-.35.03.1-.04.05-.1-.2-.1l.17-.1-.48.13c-.37-.08-.96.02-1.12-.08 0 0-.8-.05-.98.06.16-.07-.28-.1-.15-.18-.2.08-.82.14-1.07.06l.05-.01c-.9-.1-1.55.12-2.37.01.04.1-.4.04-.3.15-.84.1-1.54-.23-1.84.12-.38.02-.45-.08-.65-.1l.1-.02-1.46.02c-.27.03-.3.2-.8.15.15-.06-.04-.05-.22-.05.1-.01.15-.03-.08-.08-.03.02-.08.03-.13.04 0-.01-.01-.01-.01-.02-.3.02-.25.04-.1.05-.01.01 0 .02.05.04-.3-.08-.86.01-.9-.1l-2.28.18c-.08-.06.1-.1.3-.13l-.53.02c0-.08.3-.05.47-.06-.63-.13-1.3.13-2.04.01l-.15.06H220c0 .03-.16.08-.27.1-.1-.07.01-.16-.36-.16-.3-.07-.82.03-1.2.07.2.01.14.05.05.08-.18 0-.3-.07-.43-.04l-.02-.1c.07.1-.48.1-.55.13-.1-.07.28-.06.33-.1l-1.1.01c-.4.07.07.1-.12.17-.35.02-.68.08-1.08.03l.13.08c-.65.07-1.04.06-1.47-.03-4.83.68-1.02.93-1.02.93 1.9.2 2.9-.03 5.16-.1zm-3.38 27.77l1 5c.1.8-.4 1.6-1.2 1.9l-15 4.2c-.9.3-1.8-.3-2.1-1.2l-1.1-4.5a1.79 1.79 0 0 1 1.2-2.1l15.6-4.5c.9-.4 1.5.2 1.6 1.2z"/></g><path xmlns="http://www.w3.org/2000/svg" d="M345.75 177.7c.33-.13.63-.3.85-.56.4-.4.5-.9.5-1.5 0-.65-.33-1.1-.8-1.4-.07-.16-.15-.3-.26-.43-.1-.1-.22-.2-.35-.26l-.2-.1c-.07-.01-.14 0-.2 0-.14 0-.28.01-.42.03h-.26c-.32.03-.66.03-1 .03-1.36-.03-2.76-.2-4.18-.37l-1.07-.1c-.1.01-.2-.06-.2-.17-.01-.04 0-.02 0-.1l.02-.22.08-.48.24-1.02.97-4.23c.1-.74.2-1.54-.08-2.38a2.66 2.66 0 0 0-.72-1.13c-.1-.12-.23-.18-.36-.25-.12-.08-.26-.1-.4-.12-.28-.02-.57.08-.8.23-.77.56-1.1 1.16-1.55 1.75l-1.16 1.8-1.13 1.72c-.4.5-.9.96-1.42 1.37-.52.42-1.1.75-1.7 1.2-.3.22-.56.45-.82.7l-.4.36-.3.3c-.03.02-.06.03-.1.04l-.2.06-.45.08a7.46 7.46 0 0 1-.95.05c-.64-.01-1.3-.07-1.93-.18l-3.85-.77-.54-.2c-.22-.17-3.55-.5-4-.73l-1.5-.24c-.4-.1-1.28-.3-.54-.2l-2.4-.43-1.45-.38-15.66-3.23-6.03-1.4-3.5-.84c-1.18-.3-2.3-.7-3.4-1.3-2.2-1.12-4.25-2.64-6.08-4.15-1.82-1.52-3.42-3.07-4.7-4.43l-.93-1.04c.04-.01.06-.02.06-.01 1.08-.87 3.4-2.1 4.32-2.76l.12.06 2.93-1.82-1.36.8c.06-.13.25-.27.55-.45a17.04 17.04 0 0 1 .53-.3l.16-.1c.03-.03-.04-.1-.05-.14l-.17-.33-.4-.75-.4-.75c-.22-.4-.47-.8-.77-1.2-.93-1.6-2.5-2.9-3.37-4.62-.6-.7.62.57-.2-.55.1-.12.42.5.34.13-.77-1.1-1.02-1.98-2-3.34l.07-.12c-1.34-1.73-2.03-3.58-2.98-4.7-1.28-1.85-.5-1.47-1.95-3.32l-.35-.86c-.52-.86-.56-.5-1.1-1.47.13 0-.7-1.22-.26-.73-1.24-2.2-2.95-4.17-4.77-7-.6-.46-1.56-1.84-2.03-2.16.03-.14-2.2-2.56-.8-1.27.12.1.3.33.27.34l.24.1c-1.08-1.6-2.4-2.52-3.72-3.88.37.43.9.95.5.66l-1.24-1.25.34.18-1.9-1.83.18.34c-.92-.9-1.13-1.37-2.4-2.13-.58-.33.85.9-.24.08-1.3-1.13-3.36-2.73-5.33-3.8.12.22-.4-.06-.98-.3l-.01-.14c-2.23-.82-.67-.66-2.92-1.38l-.47.03c-1.06-.2-1.3-.35-1.6-.47-.3-.1-.6-.3-1.76-.3a32.54 32.54 0 0 0-6.44-2.22l-.55-.27c-.1-.13-1.05-.18-2-.24-.96-.05-1.9 0-2.15-.13h-1.53c-.43-.06-1.36-.1-.58-.15-1.45-.03-1.5.02-2.54.17a12.41 12.41 0 0 0-1.6.11l-.63.15c-.66-.08-1.35-.13-2.13-.1.52-.02-.22-.1-.18-.12-1.93-.03-3.96.4-3.92.7-1.35.26-1.1.2-1.32.1.02.06-.26.18-.66.33l-1.43.58.45-.22c-.96.38-1.87.86-2.75 1.38l.64-.1c-1.44.73-.5-.06-1.8.82l.13.15c-1.85 1.22-3.02 1.88-4.65 3.32-3.16 3.23-5.6 7.22-7.63 11.22-2.05 4.02-3.68 8.1-5.4 11.8l-.27.28c-.26.06-.55 2.2-.85 2.42l-.26.92c-.13.23-.38.74-.25.28-.33.8-.3.84-.48 1.45l-.47.83c-1.36 3.18-2.16 6.02-3.48 9.4-.9 2-1.98 4.9-3.04 8l-.68 1.96c-.15.2.1.22.26.3l.5.18.96.35 2.36.83 1.77.6-.26.73c-1.64 4.56-2.7 8.1-3.5 11.97-.4 1.93-.68 3.96-.86 6.2-.17 2.25-.33 4.74-.2 7.66.1 2.56.37 4.64.67 6.47.3 1.83.62 3.43 1 5.02.75 3.18 1.65 6.37 3.33 11.35 1.55 4.76 3.43 9.78 5.18 14.34.94 2.13 2.3 6 3.4 8.5L192 230c.38.87.8 1.9 1.12 2.8l-.04-.05c.57 1.3 1.13 2.8 1.4 3.43l-.04-.05.64 1.6-.14-.26 1.48 3.58a2.31 2.31 0 0 0-.64 2.14l1.1 4.54c.2.56.56 1.03 1.04 1.32.33.2.7.3 1.06.3.2 0 .4-.03.6-.1l.08-.02c.08.1.16.22.25.3l.06.15c.01-.01.04.28.07.47a20.51 20.51 0 0 0 .23 1.24c.18.85.4 1.76.7 2.8l-.04-.05c1.92 5.2 3.62 8.1 7.2 12.43-.46-.54.15.27.1.23.83 1.02 1.7 2.05 2.57 2.76.43.35.9.62 1.32.7.2.03.35.02.45.02.13-.02.2-.04.2-.06.5-.03.8-.32.95-.58a11.25 11.25 0 0 0 .49.38c.5.35 1.2.9 2.18.92-.3.02-.57-.05-.83-.12.63.25 1.7.26 2.2-.62a2.05 2.05 0 0 0 .16-.52.74.74 0 0 0 0-.21c-.01-.14-.05-.3-.1-.4a1.46 1.46 0 0 0 .19.16l-.3-.35c-.01 0-.01.04-.01.07-.01-.06-.04-.13-.04-.15.45.43.52.45.58.53.04.03.05.06.16.1a1.36 1.36 0 0 0 .54.04c.13-.03.28-.07.42-.17a1.13 1.13 0 0 0 .37-.46l-.13-.01c.2-.5.12-.9.1-1.27-.04-.37-.1-.7-.18-1.03l-.42-1.84c-.3-1.2-.5-2.32-.77-3.8l-.94-4.7c-.01-.04-.03-.08-.01-.12.04-.01.07.03.1.05.12.1.23.22.35.35l1.04 1.18c.44.45.64.92 1.52 1.46.44.24.94.3 1.34.07s.56-.72.53-1.22c-.02-.22-.06-.5-.1-.65-.05-.16-.1-.33-.16-.48-.1-.3-.26-.6-.4-.9l-.8-1.62-1.5-3.3a11.34 11.34 0 0 0-.43-.85c-.2-.33-.38-.5-.57-.76l-1.14-1.4c-.75-.95-1.5-1.88-2.3-2.72l-.04-.04c-.04-.04-.1-.12-.15-.22.95-.4 1.55-1.4 1.42-2.42l-1-4.98c-.08-.73-.38-1.3-.86-1.57-.22-.13-.55-.24-.96-.17-.14-.97-.4-2.45-.36-2.76l-.2-1.34c-.01-.38-.06-1.18.03-.5-.1-1.24-.14-1.27-.26-2.16l-.05-1.34-1.35-14.2-.3-4.3 12.93-.2c11.28.07 14.27.34 25.96.23l16.98-.07a16.06 16.06 0 0 1 1.06-.06c.2-.01.4-.01.58-.02h2.3.6c.02-.16-.05-.4-.07-.58l-.37-2.4c-.28-1.83-.57-3.7-.9-5.2l-.07-1.2c-.22-1.03-.46-2.25-.56-3.3l.04.06c-.34-1.54-.56-3.3-.73-4.07l.04.06-.2-1.16 1.58.08c2.62 0 7.22.1 10.3-.07l1.2.05c1.06-.06 2.3-.12 3.37-.1l-.07.02c1.58-.1 3.37-.14 4.16-.22l-.07.02 1.92-.1-.33.05 8.1-.53-.2-.07c5.35-.27 7.3-.6 12.12-.88l-.06.03c6.07-.73 9.64-.65 15.9-1.44-.78.1.34.01.28.04l1.1-.1.54-.06c.13-.01.08-.01.16-.01h.27a27.11 27.11 0 0 0 1.96.04c1.16-.02 1.95-.1 1.97-.18 2.13-.1 1.74-.03 2.02.02-.02-.07 1.83-.23 3.48-.48l-.76.13c.67-.08 1.33-.2 2-.3.57.14 1.13.2 1.5.14 1.5 0 2.9-.2 2.9-1.9 0-.2-.1-.5-.4-.8-.06-.06-.14-.12-.2-.17 1.18-.16 2.1-.65 2.1-2.13 0-.17-.02-.48-.26-.76.5-.1.94-.27 1.26-.54.4-.4.5-.9.5-1.6-.02-.94-.42-1.46-1-1.78zM198.5 248.15c-.28-.17-.5-.45-.6-.74l-1.1-4.5c-.12-.55.12-1.07.57-1.36.06.52.17 1.08.36 1.7.22.73.4 1.43.58 2.08.32 1.17.6 2.15.92 2.93a1.04 1.04 0 0 1-.73-.13zm20.45 20.32c.04.05.03.03 0 0h0zm0-.01h0zm-3.58-21.1c.72.7 2.16 2.6 2.67 3.12.04-.03 1.93 4.3.75 1.87-.1-.2-.26-.58-.23-.56l-.2-.26c.48 1.24.98 2.4 1.54 3.5l.84 1.65c.13.26.24.53.32.8.08.27.07.28.06.36.03-.07.02-.18-.07-.5-.07-.23-.1-.3.04-.02.13.44.1.44.08.58-.04.14-.22.1-.3.04.05 0 .1 0 .12-.02-.03-.01-.06-.02-.1-.04-.04-.03-.02 0-.13-.1-.16-.14-.34-.36-.55-.6l-1.2-1.43.28.44c-.14-.18-.28-.34-.4-.5l-.63-.73c-.4-.46-.8-.9-1.15-1.1-.35-.2-.55-.24-.85-.16-.24.12-.2.17-.27.3-.03.08-.07.12-.08.25-.01.14-.01.3-.02.45.18.82.01.03.12-.2.01-.2.06-.2.06-.2.02.04-.07.15.03.86l.3 1.58.6 3.4c.3 1.56.62 3.28 1.07 4.77 0-.3.24.5.47 1.3l-.05.1c.43 1.46.34 1.75.3 1.92.01.01-.2-.06-.3-.15-.13-.07-.28-.2-.45-.34l-.8-.78-3.36-6.8a.5.5 0 1 0-.9.44l3.6 7.27c.01.02.03.03.04.04l.22.67c.17.57.1.98.1 1-.07.16-.1.16-.18.18-.1.02-.22.06-.43.03-.22-.03-.64-.15-1.27-.56.48.34.58.4.4.36-.15-.05-.5-.25-.95-.64.01-.02 0-.04.01-.06l.08.05c-.03-.03-.05-.04-.08-.07.01-.1.01-.2-.04-.3l-3.5-6.96a.49.49 0 1 0-.89.45l2.96 5.9.03.77c.01.16-.04.37-.12.42.05-.1.02-.12-.02-.1-.02.01-.05.04-.1.07-.05.02-.08.04-.35-.01.25.01.3-.03.32-.1-.03.03-.03.05-.14.05-.16 0-.26-.01-.38-.06-.26-.1-.58-.3-.87-.55-1.26-1.26-3.12-3.64-3.5-4.3l-1.26-1.73-1.62-2.3c.47.65-.64-1.24-.24-.75a20.75 20.75 0 0 1-1.25-2.25c-.44-.94-.83-1.94-1-2.53l.1.2c-.37-1.06-.66-2.07-.9-3.03-.12-.48-.22-.95-.3-1.42l-.03-.2c.27.05.54.1.84.1 1.33 0 2.88-.5 4.48-1 3.26-.9 4.87-2.05 4.95-3.48l2.02-.57c.12.22.2.42.5.7l-.05-.05c.4.52.85.98 1.22 1.5zm-2.05-10.48c.12-.06.23-.08.33-.08.07 0 .14.02.2.05.2.1.33.42.37.83l1 5c.07.58-.3 1.15-.84 1.36l-2.75.77c-.17-1.08-.54-2.6-.88-3.97-.23-.9-.44-1.77-.55-2.35-.07-.25-.13-.46-.2-.65l3.32-.97zm3.2-67.47l-.3.94-.65 1.95-1.38 4c-.85 2.65-1.5 5.1-1.82 6.67l.03-.22c-.36 1.8-.58 2.3-1 4.28-.04.1-.08.24-.08.22-.36 1.95-1.2 5.67-1.4 7.27l-.08.1c-.13.82-.22 1.65-.3 2.48.06.28-.07 1-.16 2.04-.12 1.05-.12 2.43.04 3.84.15 2.68.78 5.4.92 8.16.2 1.3-.24-1.15-.01.82-.1.07-.14-.92-.17-.4.2 1.93.18 3.2.45 5.57l-.07.1c.4 3.1.44 5.9.76 7.95.36 3.2-.02 2.18.44 5.5l.02 1.3c.12 1.43.22 1 .33 2.6-.07-.1.15 2 0 1.1.01.17.03.34.05.52l-2.6.75c-.32-.43-.75-.66-1.4-.97h-.01c-1.28-.55-4.8.5-8.4 1.73l-.5.17c-1.06.45-1.65 1.2-1.83 2.3-1.2-3.04-2-5.54-2.74-6.6-.73-1.8-.77-2.17-1.12-3.12l.2.43-2.7-6.9c-.5-1.25-.74-1.4-1.57-3.67.34.7-.02-.2-.34-1.06.2.54.3.7-.08-.43a7.69 7.69 0 0 1-.27-.61c0-.01-.01-.06 0-.04-.55-1.4-.48-1.15-.24-.5-.02-.03-.01.03.05.24-.47-1.5-1.53-4.1-1.48-4.32l-3.9-10.9c-.07-.42.23.4.6 1.44l-.83-2.55c.08 0 .5 1.46.77 2.24-.85-3.07-2.1-6.24-2.85-9.9l-.24-.74-.04-.22c-.03.02-.26-.8-.38-1.33-.03-.53.16 0-.2-1.8-.2-1.44-.67-4.08-.8-6 .06 1.03 0 .7-.06.26-.07-.92.01-1.45-.05-2.16l.07-.07c-.07-.1-.05-2.45-.05-2.77.1-.52-.01 1.43.06 1.66.04-1.84.1-2.3.1-2.77.03-.46.04-.93.22-2.77.15-1.97-.13.35-.1-.6.18-1.73.38-3.43.86-5.38l-.22.6c.63-3.23 1.2-5.12 1.93-7.2l1.67-5.7 1.4.48c6.33 2.04 13.27 5.55 19.77 7.6a2.89 2.89 0 0 0 .76.22l5.82 2.22 5.13 1.9c-.03.04-.04.06-.04.08zm19.42-67.64l-.33-.15c.3.05.4.1.33.15zM346 176.43c-.5.6-1.7.7-2.6.7-1.3.1-3.4-.2-4.1-1-.2-.3-.2-.5-.2-.8.1-.54.58-.8 1.2-.9l3.7-.05c1.5.1 2.3.45 2.3 1.15 0 .4-.1.7-.3.9zm-11.2 10.4l.44-.1c-.97.1-1.3.14-1.95.16.58-.07.3-.1-1.13-.06l.96-.12a48.9 48.9 0 0 1-2.7.17l-1.73-.1-.28-.02-.3.03-.47.04-.93.1c-1.2.1-2.26.2-2.7.2 0 0-4.54.36-5.57.56.9-.15-1.6.04-.9-.1-1.17.18-4.64.54-6.03.57l.26-.03c-5.15.33-8.8.82-13.4 1.03.22.08-2.23.2-1.62.26-4.77.43-8.72.28-10.43.68-2.17.1-2.58 0-3.7.02l.52-.03-8.3.15c-1.5.02-1.75.2-4.45.07.88-.03-.23-.06-1.24-.1.65.02.85.01-.48-.1-.1.01-.23 0-.36 0-.47-2.45-.87-4.94-1.2-7.16l-.1.23c-.7-5.3-1.32-7.17-1.92-11.96l.05.06c-1.2-5.1-1.33-8.46-2.28-13.17 2.03-1.25 3.98-2.48 5.04-3.32l-.1.12c.76-.63 1.18-.8 1.86-1.24.73.8 1.67 1.86 2.66 2.83 1.1 1.12 2.23 2.15 2.94 2.72l.05.13c.7.6 1.45 1.18 2.2 1.73.3.1.93.64 1.9 1.3.96.67 2.25 1.5 3.8 2.07 1.44.6 2.97.8 4.47 1.08 1.52.26 3.04.52 4.55.9 1.47.23-1.3-.14.87.27.05.1-1.02-.16-.48.03 2.14.42 3.47.85 6.1 1.35l.1.1c3.46.6 6.45 1.46 8.76 1.8 3.55.67 2.33.7 6.04 1.32l1.4.4c1.58.34 1.16.1 2.9.5-.12.04 2.2.5 1.17.35 1.5.34 3.02.63 4.62.9.8.14 1.66.27 2.55.3.45.02.9.02 1.38-.02.24-.02.48-.05.73-.1.12-.02.25-.05.38-.1.1-.03.35-.1.5-.2.94-1 1.67-1.5 2.87-2.26.45-.4 1.25-1.03 1.87-1.82.62-.8 1.02-1.56 1.23-1.95.06-.04.77-1.2 1.3-1.93.55-.72.88-1.1.07.05-.14.2-.4.58-.4.54l-.13.34c.44-.6.85-1.2 1.25-1.64a1.86 1.86 0 0 1 .29-.28c.1-.08.07-.06.1-.08.02 0 .04-.01.05 0 .01 0 .02.01.02.01.02.02.1.07.1.12.62.68.42 2.1.07 3.5.25-.85.4-1.94.32-1.2-.15.87-.4 1.76-.63 2.67l.08-.58-.5 2c-.1.33-.18.67-.26 1.03-.04.18-.08.37-.1.57l-.03.3c0 .1-.01.32.02.45-.03-.4.04-.6.1-.8a6.29 6.29 0 0 0-.05.43 1.11 1.11 0 0 0 .01.26c-.27.86-.9 2.78-2.15 3.87-.8.7-2.8 1.1-2.8 1.1-.3 0-.5.2-.5.4 0 .3.2.5.4.5.05 0 .6-.07 1.26-.27 1.7 3.5.04 5.27-.06 5.37-.2.2-.2.4 0 .6.1.1.2.1.3.1s.2 0 .3-.1 2.1-2.22.3-6.26c.46-.2.92-.42 1.3-.74 1.37-1.28 1.97-2.84 2.2-3.55.05.03.1.07.16.1.62.16.85.16 1.1.2-.24.24-.4.55-.45.97-.1.5 0 1 .4 1.4.3.3.68.5 1.12.7-1.2.23-2.26.72-2.42 1.8 0 .4.1.8.4 1.1.23.28.56.5.96.7-.74.15-1.3.47-1.36 1.2 0 .5.2.9.5 1.3.2.22.45.4.74.54-.7.13-1.28.4-1.34 1.16 0 .4.1.8.4 1.1l-1.83.28c1.47-.2.73.08-1.03.2zm6.2-.5c-1.2.1-2.2-.2-2.6-.6-.2-.2-.2-.3-.2-.5 0-.4 1.1-.5 1.9-.5h1c.7 0 1.6 0 1.7.5.3.8.1 1.1-1.8 1.1zm.7-2.6c-1.6 0-2.8-.3-3.3-.8-.1-.1-.2-.4-.2-.6.1-.6 1.5-.6 2.5-.7.07-.02.13-.02.2-.04.67.1 1.3.14 1.8.14h.4c.1 0 .18-.01.27-.01.36.1.63.2.73.3.2.2.2.3.2.3 0 .8-.2 1.4-2.6 1.4zm4.1-3.4c-.5.5-1.7.5-2.9.5-1.7 0-3.7-.4-4.3-1.1-.2-.2-.2-.3-.2-.5.08-1.04 2.16-1.25 3.5-1.3.48.06.93.1 1.3.1h.2c.32 0 .66-.01 1-.04 1.03.12 1.56.46 1.7 1.34 0 .5-.1.8-.3 1z"/><path xmlns="http://www.w3.org/2000/svg" d="M277.87 161.3l-.37-.28.37.28zm-38.5-58.95c.01 0 .01 0 .02.01l.2-.01h-.23zm-29.94 95.35l.08-.6v-.02l-.08.63z"/><g xmlns="http://www.w3.org/2000/svg" fill="#fff"><path d="M236.47 131.9l-.05.15c.02-.01.03-.04.05-.15zm-8.14 37.03c0 .01 0 .02-.01.04.01-.03.01-.04.01-.04zm6.43-31.36h0v-.05.05z"/><path d="M235.5 130l-.48 4.57-.27 3c.07.47-.15 1.26-.1 1.8l-.1.2a1.37 1.37 0 0 1-.06.6l-.02-.01c.01.28-.06.6-.05.73v-.01l-.04.34-.02-.06a7.67 7.67 0 0 1-.17 1.42l.1-.02c-.25.92-.13 1.3-.38 2.1v-.02c.06 1.1-.46 1.65-.44 2.78 0-.14-.05.05-.07.03-.07.5-.16 1.05 0 1.1-.08.36-.12.3-.2.32.07.01.04.34-.02.62v-.14l-.15.82.17-.13c-.13.42-.2.07-.25.5l.12.02c-.15.6-.4.9-.63 1.46-.6 2.38-1 5.02-1.85 7.16l-.1.07c-.14.01 0 .66-.13.7l-.02.27c-.04.06-.1.2-.1.07-.08.23-.06.25-.07.43l-.15.23c-.34.9-.45 1.74-.8 2.7-.53 1.12-1.17 3.34-1.57 4.6-.25.9-.7 1.82-1.17 2.72-.15.3-.17.3-.2.35-.02.08-.1-.01-.16-.02l-.04-.02-.17-.05-.36-.1c-.24-.07-.48-.13-.72-.17-.05-.04-.22-.05-.22-.03l-1.68-.55s-8.14-2.62-2.26.35l-.05.01c.9.36 1.47.55 2.15.62.05.2.75.26.95.38l-.02.01c.6.05 1.12.47 1.7.53-.03.01-.05.05-.18.01l.32.08.4.12c.3.1.55.2.6.25l.3.1c.02 0 .06.03.07.01l.04-.08.07-.16.3-.64.22-.5.16-.4c.2-.5.37-1 .4-1.32l.01.05c.03-.38.16-.44.25-.84.02-.02.04-.04.04-.03.04-.4.4-1.08.46-1.4h.07l.25-.74-.1.27c-.14-.16.32-.52.4-1.1.2-.5 0-1.14.26-1.64 0-.28.06.26.12-.13.1.02 0 .2.1.12.08-.38.3-.57.38-1.04h.08c.06-.63.46-1.1.45-1.52.13-.63.34-.35.4-1.03l.17-.22c.1-.27-.06-.23.08-.52.06.04.16-.37.17-.18.3-.66.28-1.44.7-2.3-.06-.23.13-.67.1-.84.06-.01.25-.92.23-.37 0 .05-.02.13-.04.1l.05.08c.27-.5.18-.97.33-1.48-.06.15-.1.35-.12.2l.14-.48.03.12.22-.7-.1.08c.12-.34.28-.44.27-.86-.02-.2-.18.3-.1-.07l.58-1.74c-.1.04-.05-.12-.04-.3h.08c.04-.66.2-.2.27-.86l.04.07-.12-.2c-.02-.6.22-.28.16-.96-.04.25-.2.1-.1-.22l.05.1c.02-.17 0-.24.04-.35.02.1.1.08.13-.18l.05.2-.03-.5c.15-.36.16-.96.3-1.1 0 0 .2-.8.12-1 .04.17.15-.26.2-.12-.04-.22.01-.84.13-1.07v.05c.23-.9.14-1.57.38-2.37-.1.02.02-.4-.1-.3.01-.86.44-1.5.15-1.86.04-.4.14-.44.2-.64l.01.1.16-1.47c0-.27-.15-.33-.06-.8.04.16.06-.03.08-.2 0 .12.01.15.1-.08-.02-.04-.02-.1-.03-.14.01 0 .01-.01.02 0 .01-.3-.02-.25-.04-.1-.01-.01-.02 0-.04.04.1-.3.08-.87.2-.9.07-.9.02-1.56.04-2.3.06-.08.1.1.1.32l.03-.53c.08.01.02.3.02.48.18-.62-.01-1.32.16-2.05l-.05-.16.01-.04c-.03 0-.07-.17-.07-.28.08-.1.16.02.18-.35.1-.3.02-.83 0-1.22-.02.2-.06.14-.08.05.01-.18.08-.3.06-.43l.1-.01c-.1.07-.07-.5-.1-.56.08-.1.04.3.1.34l.04-1.1c-.06-.4-.1.07-.17-.12 0-.35-.05-.7.02-1.1l-.1.12c-.05-.66-.03-1.05.07-1.5-.3-2.45-.58-2.68-.7-2.33-.14.34-.2 1.3-.2 1.3-.22 1.88-.01 2.87-.07 5.14zm12.45-17.62l.04.14c.02-.01.01-.05-.04-.14zm12.07 32.95c.01.01.01.02.02.03-.01-.02-.02-.03-.02-.03zm-10.52-27.66h-.01l-.02-.03z"/><path d="M246.17 111.5l2 3.74 1.32 2.43c.3.32.52 1.05.84 1.45l.02.2c.1.14.2.3.25.5h-.02c.16.2.25.5.33.6h-.02l.14.28-.05-.04c.24.38.45.8.58 1.2l.07-.07c.25.84.55 1.06.75 1.83h-.02c.6.83.44 1.52 1.02 2.4-.07-.1-.02.07-.05.06.2.43.37.9.54.85.1.33.04.28 0 .35.07-.03.2.24.3.5l-.07-.1.28.72.08-.2c.1.4-.13.15.04.5l.1-.04c.17.54.1.92.17 1.46.66 2.17 1.6 4.47 1.96 6.56l-.06.1c-.1.07.34.5.25.62l.12.22c0 .07.01.22-.05.1.06.22.08.22.16.37l-.01.26c.17.9.52 1.6.73 2.5.13 1.14.8 3.2 1.2 4.37.6 1.64.58 3.73 1.2 5.4a.38.38 0 0 0 .08.19l.36 1.6.85 3.1c.43 1.17.76 1.56.58-1.48l.04.03c-.14-.88-.26-1.43-.54-2 .15-.13-.15-.72-.15-.93l.02.02c-.26-.5-.15-1.12-.4-1.6.02.02.07.02.1.13-.1-.37-.27-.87-.18-.92-.24-.88-.5-2.13-.8-2.67l.04.03c-.2-.3-.12-.42-.26-.77.01-.02.01-.05.01-.05-.2-.33-.27-1.03-.4-1.3l.06-.03-.2-.7.05.27c-.2-.05-.02-.56-.27-1.04-.1-.48-.62-.87-.66-1.4-.15-.2.2.17.03-.16.1-.04.1.15.15.04-.13-.33-.05-.6-.23-1l.07-.04c-.28-.52-.18-1.07-.4-1.4-.2-.56.1-.44-.2-1l.03-.26c-.05-.26-.17-.15-.2-.45.07 0-.05-.37.05-.22-.08-.67-.5-1.26-.57-2.15-.17-.15-.22-.6-.35-.7.05-.04-.23-.85.02-.4.02.04.04.1.02.1l.1.04c0-.52-.33-.85-.44-1.33.02.15.08.33-.01.22l-.12-.44.1.07-.16-.67-.05.1c-.05-.33.03-.48-.2-.8-.1-.15 0 .33-.13 0l-.37-1.66c-.07.08-.1-.07-.17-.22l.07-.04c-.3-.55.08-.26-.2-.8l.07.03-.2-.1c-.32-.46.05-.33-.35-.83.1.22-.12.16-.2-.13l.1.05c-.07-.15-.12-.2-.14-.3.07.08.12.01.02-.2l.14.12-.28-.38c-.04-.36-.34-.84-.3-1 0 0-.23-.72-.4-.84.12.12-.01-.28.1-.2-.15-.15-.4-.67-.43-.9l.03.04c-.26-.82-.68-1.3-.9-2.04-.07.07-.18-.32-.24-.2-.43-.67-.4-1.4-.83-1.52-.17-.32-.1-.42-.17-.6l.05.07-.62-1.22c-.14-.2-.3-.17-.46-.6.12.1.03-.06-.05-.2.06.1.1.1.03-.1-.03-.02-.06-.06-.1-.1-.14-.25-.13-.2-.08-.08-.01 0-.02.01-.01.06-.06-.3-.38-.7-.3-.8-.4-.73-.8-1.2-1.17-1.8.01-.1.13.02.25.2l-.26-.42c.07-.04.18.23.27.35-.18-.58-.7-1-.94-1.66l-.13-.1v-.04c-.03.02-.15-.1-.2-.18.01-.12.14-.08-.03-.37-.08-.27-.42-.65-.64-.93.1.17.02.14-.04.08-.1-.14-.08-.27-.18-.36l.07-.06c-.04.1-.3-.33-.38-.37.01-.12.2.2.26.2l-.55-.87c-.26-.27-.04.1-.2 0-.2-.26-.4-.5-.57-.84l-.01.14c-.4-.47-.58-.78-.74-1.16-1.56-1.68-1.9-1.68-1.83-1.34.07.33.52 1.1.52 1.1.86 1.63 1.56 2.25 2.7 4z"/></g></g></svg>